<?xml version="1.0" standalone="no"?>
<!DOCTYPE svg PUBLIC "-//W3C//DTD SVG 20010904//EN"
 "http://www.w3.org/TR/2001/REC-SVG-20010904/DTD/svg10.dtd">
<svg version="1.0" xmlns="http://www.w3.org/2000/svg"
 width="256.000000pt" height="256.000000pt" viewBox="0 0 256.000000 256.000000"
 preserveAspectRatio="xMidYMid meet">
<metadata>
Created by potrace 1.11, written by Peter Selinger 2001-2013
</metadata>
<g transform="translate(0.000000,256.000000) scale(0.100000,-0.100000)"
fill="#000000" stroke="none">
<path d="M249 2546 c-102 -27 -171 -87 -218 -186 l-26 -55 -3 -999 c-3 -1099
-4 -1071 58 -1161 36 -52 78 -86 146 -117 l49 -23 1025 0 1025 0 67 33 c75 36
123 88 160 168 l23 49 0 1025 0 1025 -33 67 c-37 76 -82 120 -162 157 l-55 26
-1005 2 c-775 1 -1015 -1 -1051 -11z"/>
</g>
</svg>
